<svg xmlns="http://www.w3.org/2000/svg" xmlns:xlink="http://www.w3.org/1999/xlink" width="1200" zoomAndPan="magnify" viewBox="0 0 900 449.999984" height="600" preserveAspectRatio="xMidYMid meet" version="1.0"><defs><g/></defs><g fill="#fefefe" fill-opacity="1"><g transform="translate(44.659679, 277.874978)"><g><path d="M 46.296875 -110.265625 L 69.921875 -110.265625 L 89.6875 0 L 68.796875 0 L 65.265625 -21.703125 L 25.875 -21.703125 L 16.390625 0 L -4.171875 0 Z M 62.203125 -40.015625 L 57.375 -70.234375 C 56.84375 -73.773438 56.414062 -77.875 56.09375 -82.53125 C 55.769531 -87.195312 55.554688 -90.226562 55.453125 -91.625 L 54.8125 -91.625 C 54.382812 -90.125 53.421875 -87.015625 51.921875 -82.296875 C 50.421875 -77.578125 48.921875 -73.554688 47.421875 -70.234375 L 34.078125 -40.015625 Z M 62.203125 -40.015625 "/></g></g></g><g fill="#fefefe" fill-opacity="1"><g transform="translate(133.056481, 277.874978)"><g><path d="M 19.9375 -110.265625 L 40.34375 -110.265625 L 27.640625 -19.28125 L 73.78125 -19.28125 L 71.046875 0 L 4.5 0 Z M 19.9375 -110.265625 "/></g></g></g><g fill="#fefefe" fill-opacity="1"><g transform="translate(206.827517, 277.874978)"><g><path d="M 19.9375 -110.265625 L 40.34375 -110.265625 L 27.640625 -19.28125 L 73.78125 -19.28125 L 71.046875 0 L 4.5 0 Z M 19.9375 -110.265625 "/></g></g></g><g fill="#fefefe" fill-opacity="1"><g transform="translate(280.598564, 277.874978)"><g><path d="M 48.0625 1.921875 C 34.988281 1.921875 24.914062 -1.582031 17.84375 -8.59375 C 10.769531 -15.613281 7.234375 -26.144531 7.234375 -40.1875 C 7.234375 -51.96875 9 -63.320312 12.53125 -74.25 C 16.070312 -85.1875 21.722656 -94.242188 29.484375 -101.421875 C 37.253906 -108.597656 47.144531 -112.1875 59.15625 -112.1875 C 72.332031 -112.1875 82.457031 -108.675781 89.53125 -101.65625 C 96.601562 -94.644531 100.140625 -84.066406 100.140625 -69.921875 C 100.140625 -58.242188 98.34375 -46.910156 94.75 -35.921875 C 91.164062 -24.941406 85.460938 -15.890625 77.640625 -8.765625 C 69.816406 -1.640625 59.957031 1.921875 48.0625 1.921875 Z M 47.25 -15.75 C 55.289062 -15.75 61.664062 -18.585938 66.375 -24.265625 C 71.09375 -29.953125 74.414062 -36.835938 76.34375 -44.921875 C 78.269531 -53.015625 79.234375 -61.078125 79.234375 -69.109375 C 79.234375 -77.253906 77.625 -83.523438 74.40625 -87.921875 C 71.195312 -92.316406 66.378906 -94.515625 59.953125 -94.515625 C 51.921875 -94.515625 45.519531 -91.671875 40.75 -85.984375 C 35.976562 -80.304688 32.65625 -73.421875 30.78125 -65.328125 C 28.90625 -57.242188 27.96875 -49.128906 27.96875 -40.984375 C 27.96875 -32.835938 29.570312 -26.59375 32.78125 -22.25 C 36 -17.914062 40.820312 -15.75 47.25 -15.75 Z M 47.25 -15.75 "/></g></g></g><g fill="#fefefe" fill-opacity="1"><g transform="translate(376.388603, 277.874978)"><g><path d="M 45.65625 1.921875 C 33.332031 1.921875 23.847656 -1.582031 17.203125 -8.59375 C 10.554688 -15.613281 7.234375 -26.144531 7.234375 -40.1875 C 7.234375 -52.394531 8.921875 -63.960938 12.296875 -74.890625 C 15.671875 -85.828125 21.054688 -94.773438 28.453125 -101.734375 C 35.847656 -108.703125 45.273438 -112.1875 56.734375 -112.1875 C 68.628906 -112.1875 77.925781 -108.726562 84.625 -101.8125 C 91.320312 -94.90625 94.671875 -84.753906 94.671875 -71.359375 L 94.671875 -69.28125 L 73.78125 -69.28125 L 73.78125 -72.171875 C 73.78125 -79.242188 72.28125 -84.734375 69.28125 -88.640625 C 66.28125 -92.554688 62.097656 -94.515625 56.734375 -94.515625 C 49.453125 -94.515625 43.664062 -91.671875 39.375 -85.984375 C 35.09375 -80.304688 32.117188 -73.421875 30.453125 -65.328125 C 28.796875 -57.242188 27.96875 -49.128906 27.96875 -40.984375 C 27.96875 -32.835938 29.46875 -26.59375 32.46875 -22.25 C 35.46875 -17.914062 40.019531 -15.75 46.125 -15.75 C 52.875 -15.75 58.285156 -18.078125 62.359375 -22.734375 C 66.429688 -27.398438 69.273438 -33.429688 70.890625 -40.828125 L 90.96875 -40.828125 C 88.289062 -28.285156 83.148438 -18.023438 75.546875 -10.046875 C 67.941406 -2.066406 57.976562 1.921875 45.65625 1.921875 Z M 45.65625 1.921875 "/></g></g></g><g fill="#fefefe" fill-opacity="1"><g transform="translate(464.785393, 277.874978)"><g><path d="M 46.296875 -110.265625 L 69.921875 -110.265625 L 89.6875 0 L 68.796875 0 L 65.265625 -21.703125 L 25.875 -21.703125 L 16.390625 0 L -4.171875 0 Z M 62.203125 -40.015625 L 57.375 -70.234375 C 56.84375 -73.773438 56.414062 -77.875 56.09375 -82.53125 C 55.769531 -87.195312 55.554688 -90.226562 55.453125 -91.625 L 54.8125 -91.625 C 54.382812 -90.125 53.421875 -87.015625 51.921875 -82.296875 C 50.421875 -77.578125 48.921875 -73.554688 47.421875 -70.234375 L 34.078125 -40.015625 Z M 62.203125 -40.015625 "/></g></g></g><g fill="#fefefe" fill-opacity="1"><g transform="translate(553.182207, 277.874978)"><g><path d="M 37.453125 -91.9375 L 10.28125 -91.9375 L 12.859375 -110.265625 L 87.4375 -110.265625 L 84.875 -91.9375 L 57.703125 -91.9375 L 44.84375 0 L 24.59375 0 Z M 37.453125 -91.9375 "/></g></g></g><g fill="#fefefe" fill-opacity="1"><g transform="translate(626.953243, 277.874978)"><g><path d="M 19.9375 -110.265625 L 89.375 -110.265625 L 86.796875 -91.9375 L 37.765625 -91.9375 L 34.078125 -65.578125 L 76.1875 -65.578125 L 73.609375 -47.25 L 31.5 -47.25 L 27.328125 -18.328125 L 77.46875 -18.328125 L 74.90625 0 L 4.5 0 Z M 19.9375 -110.265625 "/></g></g></g><g fill="#fefefe" fill-opacity="1"><g transform="translate(708.117528, 277.874978)"><g><path d="M 28.765625 -32.625 L 4.015625 -32.625 L 6.421875 -49.34375 L 31.1875 -49.34375 L 35.6875 -82.140625 L 52.234375 -82.140625 L 47.734375 -49.34375 L 72.65625 -49.34375 L 70.234375 -32.625 L 45.328125 -32.625 L 40.828125 0 L 24.265625 0 Z M 28.765625 -32.625 "/></g></g></g><g fill="#fefefe" fill-opacity="1"><g transform="translate(778.35266, 277.874978)"><g><path d="M 28.765625 -32.625 L 4.015625 -32.625 L 6.421875 -49.34375 L 31.1875 -49.34375 L 35.6875 -82.140625 L 52.234375 -82.140625 L 47.734375 -49.34375 L 72.65625 -49.34375 L 70.234375 -32.625 L 45.328125 -32.625 L 40.828125 0 L 24.265625 0 Z M 28.765625 -32.625 "/></g></g></g></svg>